<svg xmlns="http://www.w3.org/2000/svg" xmlns:xlink="http://www.w3.org/1999/xlink" width="156.049" height="50.576" viewBox="0 0 156.049 50.576">
  <defs>
    <clipPath id="clip-path">
      <rect id="Rectangle_51" data-name="Rectangle 51" width="156.049" height="50.576" fill="none"/>
    </clipPath>
  </defs>
  <g id="Group_29" data-name="Group 29" clip-path="url(#clip-path)">
    <path id="Path_35" data-name="Path 35" d="M24.655,6.566A24.644,24.644,0,0,0,10.1,51.1h.308L20.614,45.3V42.67l-7.864,4.473V44.516l7.864-4.473V37.417L12.751,41.89V39.264l7.864-4.473V32.315l-7.864,4.473-2.626,1.494V47.71a21.993,21.993,0,1,1,28.906.135V38.123L23.264,29.165l-.023-.013V45.3h2.676v-12L36.4,39.256v2.627l-7.86-4.47v2.626l7.86,4.47v2.627l-7.86-4.471v2.627L38.765,51.1h.446A24.644,24.644,0,0,0,24.655,6.566" transform="translate(0 -3.547)" fill="#262261"/>
    <path id="Path_36" data-name="Path 36" d="M69.951,45.611l.527,1.336L71,45.611a4.265,4.265,0,0,1,2.4-2.4l1.336-.527-1.336-.527a4.265,4.265,0,0,1-2.4-2.4l-.526-1.336-.527,1.336a4.265,4.265,0,0,1-2.4,2.4l-1.336.527,1.336.527a4.265,4.265,0,0,1,2.4,2.4" transform="translate(-35.77 -20.753)" fill="#ec2229"/>
    <path id="Path_37" data-name="Path 37" d="M35.137,43.7l2.649,1.505.027.015-.006-10.5L22.066,43.69H22.02v9.143l2.627-1.494v-6.49l10.486-5.965Z" transform="translate(-11.896 -18.76)" fill="#262261"/>
    <path id="Path_38" data-name="Path 38" d="M131.548,47.681V30.9h8.4c3.773,0,5.836,2.54,5.836,5.584,0,3.018-2.063,5.508-5.836,5.508h-4.074v5.684Zm7.822-13.129h-3.5v3.772h3.5a1.852,1.852,0,0,0,2.012-1.861,1.876,1.876,0,0,0-2.012-1.911" transform="translate(-71.065 -16.695)" fill="#262261"/>
    <path id="Path_39" data-name="Path 39" d="M164.393,53.118V40.97h3.873V42.5a5.038,5.038,0,0,1,3.8-1.512V44.74a3.135,3.135,0,0,0-.955-.126c-1.006,0-2.339.1-2.842.808v7.7Z" transform="translate(-88.808 -22.133)" fill="#262261"/>
    <path id="Path_40" data-name="Path 40" d="M181.749,46.676a6.632,6.632,0,1,1,6.615,6.389,6.264,6.264,0,0,1-6.615-6.389m9.281,0a2.656,2.656,0,1,0-5.282,0c0,1.635.931,2.968,2.616,2.968a2.687,2.687,0,0,0,2.666-2.968" transform="translate(-98.184 -21.778)" fill="#262261"/>
    <path id="Path_41" data-name="Path 41" d="M216.771,57.391H212.9V40.615h3.873v1.408a4.533,4.533,0,0,1,3.6-1.71c3.043,0,5.332,2.264,5.332,6.363,0,4.125-2.289,6.389-5.332,6.389a4.514,4.514,0,0,1-3.6-1.735Zm2.314-13.657a3.094,3.094,0,0,0-2.314,1.107v3.7a3.183,3.183,0,0,0,2.314,1.107,2.691,2.691,0,0,0,2.666-2.968,2.683,2.683,0,0,0-2.666-2.943" transform="translate(-115.011 -21.778)" fill="#262261"/>
    <path id="Path_42" data-name="Path 42" d="M248.479,40.314c3.6,0,6.212,2.641,6.212,6.766v.83h-8.652a2.9,2.9,0,0,0,3.094,2.163,4.809,4.809,0,0,0,2.968-1.031l1.635,2.414a7.925,7.925,0,0,1-5.081,1.61c-3.748,0-6.641-2.44-6.641-6.388a6.27,6.27,0,0,1,6.465-6.363m-2.49,5.081h5.005a2.335,2.335,0,0,0-2.515-2.088,2.4,2.4,0,0,0-2.49,2.088" transform="translate(-130.741 -21.778)" fill="#262261"/>
    <path id="Path_43" data-name="Path 43" d="M271.632,53.118V40.97h3.873V42.5a5.039,5.039,0,0,1,3.8-1.512V44.74a3.135,3.135,0,0,0-.955-.126c-1.006,0-2.339.1-2.842.808v7.7Z" transform="translate(-146.741 -22.133)" fill="#262261"/>
    <path id="Path_44" data-name="Path 44" d="M292.238,45.947V40.439h-2.012v-3.37h2.012v-3.32h3.848v3.32h2.465v3.37h-2.465v4.427a1.1,1.1,0,0,0,1.081,1.232,1.507,1.507,0,0,0,.981-.3l.754,2.918a4.23,4.23,0,0,1-2.868.8c-2.464,0-3.8-1.233-3.8-3.572" transform="translate(-156.786 -18.232)" fill="#262261"/>
    <path id="Path_45" data-name="Path 45" d="M311.6,54.4a2.137,2.137,0,0,0,.956.227c.88,0,1.434-.177,1.635-.679l.277-.654L309.639,40.97h4.075l2.742,7.7,2.766-7.7h4.1l-5.483,13.884c-.981,2.565-2.817,3.144-5.131,3.194a7.873,7.873,0,0,1-1.66-.2Z" transform="translate(-167.273 -22.133)" fill="#262261"/>
    <path id="Path_46" data-name="Path 46" d="M138.849,89.634l-.855-2.54h-6.967l-.855,2.54h-4.7l6.313-16.776h5.432l6.338,16.776Zm-4.351-13-2.339,6.816h4.7Z" transform="translate(-67.781 -39.359)" fill="#262261"/>
    <path id="Path_47" data-name="Path 47" d="M173.695,95.071l-3.26-7.52-1.292,7.52h-4.175L160.4,82.923h3.974l2.933,7.445,1.418-7.445h3.446l3.361,7.445.965-7.445h4L177.87,95.071Z" transform="translate(-86.65 -44.796)" fill="#262261"/>
    <path id="Path_48" data-name="Path 48" d="M213.1,94.716V93.509a5.017,5.017,0,0,1-3.773,1.509,4.011,4.011,0,0,1-4.175-4c0-2.943,2.314-3.823,4.175-3.823A4.854,4.854,0,0,1,213.1,88.6V87.07c0-1.056-.906-1.76-2.465-1.76a5.419,5.419,0,0,0-3.446,1.283l-1.383-2.44a8.567,8.567,0,0,1,5.508-1.886c2.918,0,5.659,1.081,5.659,4.854v7.6Zm0-4.2a2.765,2.765,0,0,0-2.163-.855c-1.031,0-1.937.453-1.937,1.408s.905,1.409,1.937,1.409a2.7,2.7,0,0,0,2.163-.88Z" transform="translate(-110.825 -44.442)" fill="#262261"/>
    <path id="Path_49" data-name="Path 49" d="M234.171,94.717V82.569h3.873V84.1a5.3,5.3,0,0,1,3.8-1.836v3.748a3.119,3.119,0,0,0-.955-.126,3.862,3.862,0,0,0-2.842,1.132v7.7Z" transform="translate(-126.504 -44.442)" fill="#262261"/>
    <path id="Path_50" data-name="Path 50" d="M261.21,89.633V88.225a4.64,4.64,0,0,1-3.6,1.71c-2.993,0-5.383-2.264-5.383-6.389,0-3.974,2.339-6.363,5.383-6.363a4.513,4.513,0,0,1,3.6,1.735V72.857h3.848V89.633Zm0-7.948a3.166,3.166,0,0,0-2.339-1.081,2.971,2.971,0,0,0,0,5.91,3.189,3.189,0,0,0,2.339-1.107Z" transform="translate(-136.26 -39.359)" fill="#262261"/>
    <path id="Path_51" data-name="Path 51" d="M284.272,90.491a7.572,7.572,0,0,0,4.276,1.61c1.157,0,1.635-.377,1.635-.905,0-.629-.83-.855-2.087-1.057-2.063-.352-4.98-.78-4.98-3.873,0-2.138,1.836-4,5.207-4a8.553,8.553,0,0,1,5.081,1.61l-1.484,2.566a5.427,5.427,0,0,0-3.571-1.333c-.905,0-1.534.3-1.534.83,0,.553.654.755,1.937.981,2.063.352,5.131.855,5.131,4.075,0,2.314-2.037,4.024-5.533,4.024a9.06,9.06,0,0,1-5.684-1.861Z" transform="translate(-152.699 -44.442)" fill="#262261"/>
    <path id="Path_52" data-name="Path 52" d="M131.549,9.137V8.972a.943.943,0,0,0,.725-.592,7.582,7.582,0,0,0,.193-2.212v-4.3a1.108,1.108,0,0,0-.174-.674A1.037,1.037,0,0,0,131.7.852V.675h.076Q133.125.7,133.79.7h5.367l.721,2.165-.19.051a5.063,5.063,0,0,0-1.839-1.338,6.183,6.183,0,0,0-2.4-.434q-.317,0-.468,0a2.369,2.369,0,0,0-.285.022V4.409q.215.012.418.019t.411.006a4.194,4.194,0,0,0,1.88-.371,1.741,1.741,0,0,0,.949-1.028h.177V6.257h-.177a1.756,1.756,0,0,0-.949-1.051,4.309,4.309,0,0,0-1.905-.361q-.323,0-.49.006t-.314.019V6.042a4.868,4.868,0,0,0,.288,2.184,1.409,1.409,0,0,0,1.218.418,4.213,4.213,0,0,0,2.158-.583,6.607,6.607,0,0,0,1.9-1.772l.222.076L139.65,9.1h-5.341c-.093,0-.236,0-.43-.006s-.34-.006-.437-.006q-.513,0-.981.012t-.911.038" transform="translate(-71.065 -0.365)" fill="#050606"/>
    <path id="Path_53" data-name="Path 53" d="M158.712,10.65l-.006.222-.981-.019q-.329-.006-.607-.006h-.57a3.4,3.4,0,0,1-.269-.509,4.011,4.011,0,0,1-.187-.554,2.431,2.431,0,0,1-.877.939,2.488,2.488,0,0,1-1.263.295,3.032,3.032,0,0,1-1.927-.583,1.8,1.8,0,0,1-.743-1.481,1.761,1.761,0,0,1,1.152-1.629,9.031,9.031,0,0,1,3.5-.636V6.631a3.131,3.131,0,0,0-.392-1.724,1.29,1.29,0,0,0-1.146-.592,1.594,1.594,0,0,0-1.234.52,4.007,4.007,0,0,0-.778,1.683h-.177l-.6-1.93a6.817,6.817,0,0,1,1.475-.51,7.294,7.294,0,0,1,1.576-.167,5.1,5.1,0,0,1,1.582.221,2.34,2.34,0,0,1,1.057.652,1.765,1.765,0,0,1,.434.769,7,7,0,0,1,.124,1.611v.6a8.413,8.413,0,0,0,.187,2.221.907.907,0,0,0,.674.664m-2.778-3.576c-.034,0-.072-.007-.114-.01s-.1,0-.183,0a2.371,2.371,0,0,0-1.595.481,1.733,1.733,0,0,0-.557,1.386,1.871,1.871,0,0,0,.294,1.1.913.913,0,0,0,.782.414,1.089,1.089,0,0,0,1.047-.7,5.754,5.754,0,0,0,.326-2.272Z" transform="translate(-81.725 -2.112)" fill="#050606"/>
    <path id="Path_54" data-name="Path 54" d="M166.679,10.329l.728-2.139.177.025a3.5,3.5,0,0,0,.76,1.8,1.829,1.829,0,0,0,1.417.614,1.667,1.667,0,0,0,1.1-.357,1.136,1.136,0,0,0,.43-.915.843.843,0,0,0-.3-.69,4.224,4.224,0,0,0-1.408-.525,4.984,4.984,0,0,1-1.956-.807,1.572,1.572,0,0,1-.481-1.231,1.825,1.825,0,0,1,.883-1.557,4,4,0,0,1,2.313-.608,6.256,6.256,0,0,1,2.62.57l-.595,1.766L172.2,6.26a3.176,3.176,0,0,0-.791-1.434,1.7,1.7,0,0,0-1.215-.509,1.329,1.329,0,0,0-.911.329,1.026,1.026,0,0,0-.373.8q0,.785,1.512,1.108c.186.042.329.074.43.095a4.51,4.51,0,0,1,1.9.76,1.594,1.594,0,0,1,.513,1.266,1.99,1.99,0,0,1-.946,1.738,4.622,4.622,0,0,1-2.6.636,6.81,6.81,0,0,1-1.579-.184,6.348,6.348,0,0,1-1.452-.532" transform="translate(-90.043 -2.127)" fill="#050606"/>
    <path id="Path_55" data-name="Path 55" d="M184.139,5.583a8.884,8.884,0,0,0,.19,2.31,1.016,1.016,0,0,0,.69.715V8.76h.038q-.759-.013-2.278-.025A.76.76,0,0,1,182.4,8.2a6.578,6.578,0,0,1-.111-1.487V5.78l.025-3.139h-.728l.069-.373a5.861,5.861,0,0,0,1.38-.978A5.217,5.217,0,0,0,183.994,0h.209q-.032.329-.047.747t-.016.9V2.1h1.487l-.152.544h-1.336Z" transform="translate(-98.094 -0.001)" fill="#050606"/>
    <path id="Path_56" data-name="Path 56" d="M196.08,6.657h-4.861l-.006.044q-.019.392-.019.583a3.855,3.855,0,0,0,.592,2.285,1.9,1.9,0,0,0,1.636.823,2.042,2.042,0,0,0,1.487-.6A3.818,3.818,0,0,0,195.833,8l.348.316a3.875,3.875,0,0,1-1.256,2.022,3.424,3.424,0,0,1-2.181.674,3.68,3.68,0,0,1-2.674-1,3.441,3.441,0,0,1-1.029-2.585A3.386,3.386,0,0,1,190.058,4.9a4.056,4.056,0,0,1,4.952-.272,3.03,3.03,0,0,1,1.07,2.032m-2.208-.462a2.6,2.6,0,0,0-.361-1.377,1.016,1.016,0,0,0-.88-.5,1.1,1.1,0,0,0-.911.491,2.957,2.957,0,0,0-.487,1.389Z" transform="translate(-102.124 -2.112)" fill="#050606"/>
    <path id="Path_57" data-name="Path 57" d="M204.577,10.884v-.152a1.012,1.012,0,0,0,.652-.579,5.651,5.651,0,0,0,.177-1.794V6.024a2.331,2.331,0,0,0-.148-1.057.722.722,0,0,0-.579-.266V4.55q.86-.108,1.509-.225a10.977,10.977,0,0,0,1.085-.244V5.663a3.492,3.492,0,0,1,.953-1.314,1.977,1.977,0,0,1,1.263-.44c.068,0,.12,0,.155,0s.069.005.1.009l-.709,2.114h-.164a.721.721,0,0,0-.231-.193.624.624,0,0,0-.288-.067.875.875,0,0,0-.8.478,2.8,2.8,0,0,0-.275,1.377v.62a6.324,6.324,0,0,0,.177,1.911.936.936,0,0,0,.652.57l-.007.152q-.31-.019-.686-.028t-1.1-.01q-.646,0-1.02.01t-.715.028" transform="translate(-110.516 -2.112)" fill="#050606"/>
    <path id="Path_58" data-name="Path 58" d="M215.913,10.9l-.006-.139a1.019,1.019,0,0,0,.661-.6,6.23,6.23,0,0,0,.18-1.9V6.038a2.341,2.341,0,0,0-.149-1.06.7.7,0,0,0-.573-.263V4.577q.734-.089,1.355-.206t1.12-.263V5.583a2.7,2.7,0,0,1,.915-1.238,2.806,2.806,0,0,1,3.4.373,3.713,3.713,0,0,1,.646,2.4V8.253a6.228,6.228,0,0,0,.183,1.921.972.972,0,0,0,.658.586V10.9q-.317-.019-.69-.028t-1.1-.01q-.658,0-1.035.01t-.712.028l-.006-.139a1,1,0,0,0,.649-.576,5.253,5.253,0,0,0,.18-1.721V7.235a4.38,4.38,0,0,0-.323-1.949,1.091,1.091,0,0,0-1.038-.608,1.357,1.357,0,0,0-1.183.7,3.4,3.4,0,0,0-.449,1.861V8.14a6.917,6.917,0,0,0,.18,2.032.963.963,0,0,0,.661.589V10.9q-.317-.019-.69-.028t-1.095-.01q-.658,0-1.035.01t-.712.028" transform="translate(-116.637 -2.127)" fill="#050606"/>
    <path id="Path_59" data-name="Path 59" d="M233.176,9.137V8.972a.943.943,0,0,0,.725-.592,7.581,7.581,0,0,0,.193-2.212v-4.3a1.108,1.108,0,0,0-.174-.674,1.04,1.04,0,0,0-.592-.339V.675h.076Q234.752.7,235.416.7h5.367l.721,2.165-.19.051a5.07,5.07,0,0,0-1.839-1.338,6.183,6.183,0,0,0-2.4-.434c-.211,0-.367,0-.468,0a2.362,2.362,0,0,0-.285.022V4.409q.215.012.417.019t.412.006a4.2,4.2,0,0,0,1.88-.371,1.742,1.742,0,0,0,.949-1.028h.177V6.257h-.177a1.756,1.756,0,0,0-.949-1.051,4.309,4.309,0,0,0-1.905-.361q-.323,0-.49.006t-.314.019V6.042a4.868,4.868,0,0,0,.288,2.184,1.409,1.409,0,0,0,1.218.418,4.212,4.212,0,0,0,2.158-.583,6.606,6.606,0,0,0,1.9-1.772l.222.076L241.277,9.1h-5.342c-.092,0-.236,0-.43-.006s-.339-.006-.436-.006q-.512,0-.981.012t-.911.038" transform="translate(-125.966 -0.365)" fill="#ec2229"/>
    <path id="Path_60" data-name="Path 60" d="M252.113,13.505l.842-2.292.183.051a1.061,1.061,0,0,0,.257.563.679.679,0,0,0,.5.177.935.935,0,0,0,.687-.254.917.917,0,0,0,.256-.683,1.931,1.931,0,0,0-.082-.532,4.436,4.436,0,0,0-.253-.646l-2.126-4.436-.006-.006q-.474-.974-.86-1.082V4.227q.493.019.952.029t.9.009q.442,0,.87-.009t.839-.029v.139a1.088,1.088,0,0,0-.475.316.713.713,0,0,0-.158.462,1.486,1.486,0,0,0,.057.386,2.408,2.408,0,0,0,.159.417l1.468,2.842,1.165-2.842a3.192,3.192,0,0,0,.146-.442,1.576,1.576,0,0,0,.05-.361.7.7,0,0,0-.18-.509,1.091,1.091,0,0,0-.572-.269V4.227q.31.019.639.029t.671.009q.348,0,.705-.009c.239-.006.482-.016.731-.029v.139a2.628,2.628,0,0,0-.772.614,5.87,5.87,0,0,0-.741,1.2l-1.9,3.835a10.974,10.974,0,0,1-1.807,2.854,2.394,2.394,0,0,1-1.692.7,1.627,1.627,0,0,1-.231-.016,1.4,1.4,0,0,1-.212-.047" transform="translate(-135.868 -2.284)" fill="#ec2229"/>
    <path id="Path_61" data-name="Path 61" d="M273.682,6.657h-4.861l-.006.044q-.019.392-.019.583a3.855,3.855,0,0,0,.592,2.285,1.9,1.9,0,0,0,1.636.823,2.041,2.041,0,0,0,1.487-.6A3.813,3.813,0,0,0,273.435,8l.348.316a3.878,3.878,0,0,1-1.256,2.022,3.423,3.423,0,0,1-2.18.674,3.681,3.681,0,0,1-2.674-1,3.441,3.441,0,0,1-1.029-2.585A3.385,3.385,0,0,1,267.66,4.9a4.057,4.057,0,0,1,4.953-.272,3.032,3.032,0,0,1,1.069,2.032m-2.209-.462a2.6,2.6,0,0,0-.36-1.377,1.018,1.018,0,0,0-.88-.5,1.1,1.1,0,0,0-.911.491,2.962,2.962,0,0,0-.487,1.389Z" transform="translate(-144.046 -2.112)" fill="#ec2229"/>
  </g>
</svg>
